<mxfile host="app.diagrams.net" modified="2022-08-15T07:23:03.394Z" agent="5.0 (Windows NT 10.0; Win64; x64) AppleWebKit/537.36 (KHTML, like Gecko) Chrome/103.0.5060.134 Safari/537.36 OPR/89.0.4447.71" etag="HcU3ll8W_JFvsFkO4XZP" version="20.2.3" type="github">
  <diagram id="MZlPnt6dbEGvxC-9J3r3" name="Страница 1">
    <mxGraphModel dx="658" dy="364" grid="1" gridSize="10" guides="1" tooltips="1" connect="1" arrows="1" fold="1" page="1" pageScale="1" pageWidth="827" pageHeight="1169" math="0" shadow="0">
      <root>
        <mxCell id="0" />
        <mxCell id="1" parent="0" />
        <mxCell id="5aGmnt3CXDq8jBRWBJYF-43" value="" style="rounded=0;whiteSpace=wrap;html=1;fontSize=21;fontColor=#000000;" vertex="1" parent="1">
          <mxGeometry x="120" y="310" width="480" height="250" as="geometry" />
        </mxCell>
        <mxCell id="5aGmnt3CXDq8jBRWBJYF-4" value="" style="whiteSpace=wrap;html=1;aspect=fixed;" vertex="1" parent="1">
          <mxGeometry x="200" y="560" width="80" height="80" as="geometry" />
        </mxCell>
        <mxCell id="5aGmnt3CXDq8jBRWBJYF-28" style="edgeStyle=orthogonalEdgeStyle;rounded=0;orthogonalLoop=1;jettySize=auto;html=1;exitX=0.5;exitY=0;exitDx=0;exitDy=0;fontSize=8;fontColor=#FF7424;strokeColor=#2164FF;" edge="1" parent="1" source="5aGmnt3CXDq8jBRWBJYF-3" target="5aGmnt3CXDq8jBRWBJYF-26">
          <mxGeometry relative="1" as="geometry">
            <mxPoint x="233" y="500" as="targetPoint" />
          </mxGeometry>
        </mxCell>
        <mxCell id="5aGmnt3CXDq8jBRWBJYF-3" value="&lt;font style=&quot;font-size: 8px;&quot;&gt;Дверь&lt;/font&gt;" style="rounded=0;whiteSpace=wrap;html=1;" vertex="1" parent="1">
          <mxGeometry x="210" y="550" width="60" height="20" as="geometry" />
        </mxCell>
        <mxCell id="5aGmnt3CXDq8jBRWBJYF-6" value="" style="rounded=0;whiteSpace=wrap;html=1;" vertex="1" parent="1">
          <mxGeometry x="280" y="520" width="60" height="40" as="geometry" />
        </mxCell>
        <mxCell id="5aGmnt3CXDq8jBRWBJYF-7" value="&lt;font style=&quot;font-size: 6px;&quot;&gt;&lt;font style=&quot;line-height: 1.2;&quot; color=&quot;#1f17ff&quot;&gt;коробка&lt;br&gt;сбора&lt;/font&gt;&lt;br&gt;&lt;/font&gt;" style="shape=cylinder3;whiteSpace=wrap;html=1;boundedLbl=1;backgroundOutline=1;size=15;labelPosition=center;verticalLabelPosition=middle;align=center;verticalAlign=bottom;spacingTop=0;fillColor=#D5E8D4;strokeColor=#82B366;spacing=6;" vertex="1" parent="1">
          <mxGeometry x="295" y="500" width="30" height="50" as="geometry" />
        </mxCell>
        <mxCell id="5aGmnt3CXDq8jBRWBJYF-8" value="Шкаф для вещей" style="rounded=0;whiteSpace=wrap;html=1;fontSize=6;rotation=90;" vertex="1" parent="1">
          <mxGeometry x="312.5" y="462.5" width="85" height="30" as="geometry" />
        </mxCell>
        <mxCell id="5aGmnt3CXDq8jBRWBJYF-9" value="Прилавок" style="rounded=0;whiteSpace=wrap;html=1;fontSize=6;" vertex="1" parent="1">
          <mxGeometry x="370" y="490" width="190" height="70" as="geometry" />
        </mxCell>
        <mxCell id="5aGmnt3CXDq8jBRWBJYF-10" value="" style="rounded=0;whiteSpace=wrap;html=1;fontSize=6;rotation=90;" vertex="1" parent="1">
          <mxGeometry x="157.5" y="517.5" width="55" height="30" as="geometry" />
        </mxCell>
        <mxCell id="5aGmnt3CXDq8jBRWBJYF-11" value="Охранник" style="shape=umlActor;verticalLabelPosition=bottom;verticalAlign=top;html=1;outlineConnect=0;fontSize=6;" vertex="1" parent="1">
          <mxGeometry x="147.5" y="510" width="10" height="20" as="geometry" />
        </mxCell>
        <mxCell id="5aGmnt3CXDq8jBRWBJYF-30" style="edgeStyle=orthogonalEdgeStyle;rounded=0;orthogonalLoop=1;jettySize=auto;html=1;entryX=1;entryY=0.3333333333333333;entryDx=0;entryDy=0;entryPerimeter=0;fontSize=8;fontColor=#FF7424;strokeColor=#2164FF;" edge="1" parent="1" source="5aGmnt3CXDq8jBRWBJYF-12" target="5aGmnt3CXDq8jBRWBJYF-27">
          <mxGeometry relative="1" as="geometry" />
        </mxCell>
        <mxCell id="5aGmnt3CXDq8jBRWBJYF-12" value="&lt;font color=&quot;#ff1ce1&quot;&gt;&lt;b&gt;Доброволец 1&lt;/b&gt;&lt;br&gt;Положение 1&lt;/font&gt;" style="shape=umlActor;verticalLabelPosition=top;verticalAlign=bottom;html=1;outlineConnect=0;fontSize=6;labelPosition=center;align=center;strokeColor=#13FF03;" vertex="1" parent="1">
          <mxGeometry x="309.5" y="462.5" width="15" height="30" as="geometry" />
        </mxCell>
        <mxCell id="5aGmnt3CXDq8jBRWBJYF-22" style="edgeStyle=orthogonalEdgeStyle;rounded=0;orthogonalLoop=1;jettySize=auto;html=1;fontSize=6;fontColor=#FF7424;strokeColor=#2164FF;" edge="1" parent="1" source="5aGmnt3CXDq8jBRWBJYF-13">
          <mxGeometry relative="1" as="geometry">
            <mxPoint x="240" y="660" as="targetPoint" />
          </mxGeometry>
        </mxCell>
        <mxCell id="5aGmnt3CXDq8jBRWBJYF-13" value="&lt;font color=&quot;#ff1ce1&quot;&gt;&lt;b&gt;Доброволец 1&lt;/b&gt;&lt;br&gt;Положение 2&lt;/font&gt;" style="shape=umlActor;verticalLabelPosition=top;verticalAlign=bottom;html=1;outlineConnect=0;fontSize=6;labelPosition=center;align=center;strokeColor=#13FF03;" vertex="1" parent="1">
          <mxGeometry x="295" y="645" width="15" height="30" as="geometry" />
        </mxCell>
        <mxCell id="5aGmnt3CXDq8jBRWBJYF-19" value="" style="group" vertex="1" connectable="0" parent="1">
          <mxGeometry x="160" y="650" width="50" height="30" as="geometry" />
        </mxCell>
        <mxCell id="5aGmnt3CXDq8jBRWBJYF-15" value="" style="shape=umlActor;verticalLabelPosition=bottom;verticalAlign=top;html=1;outlineConnect=0;fontSize=6;" vertex="1" parent="5aGmnt3CXDq8jBRWBJYF-19">
          <mxGeometry width="13.888888888888888" height="30" as="geometry" />
        </mxCell>
        <mxCell id="5aGmnt3CXDq8jBRWBJYF-16" value="Поток&amp;nbsp;" style="shape=umlActor;verticalLabelPosition=bottom;verticalAlign=top;html=1;outlineConnect=0;fontSize=6;" vertex="1" parent="5aGmnt3CXDq8jBRWBJYF-19">
          <mxGeometry x="18.51851851851852" width="13.888888888888888" height="30" as="geometry" />
        </mxCell>
        <mxCell id="5aGmnt3CXDq8jBRWBJYF-17" value="" style="shape=umlActor;verticalLabelPosition=bottom;verticalAlign=top;html=1;outlineConnect=0;fontSize=6;" vertex="1" parent="5aGmnt3CXDq8jBRWBJYF-19">
          <mxGeometry x="36.11111111111111" width="13.888888888888888" height="30" as="geometry" />
        </mxCell>
        <mxCell id="5aGmnt3CXDq8jBRWBJYF-20" style="edgeStyle=orthogonalEdgeStyle;rounded=0;orthogonalLoop=1;jettySize=auto;html=1;entryX=0.5;entryY=1;entryDx=0;entryDy=0;fontSize=6;fillColor=#e51400;strokeColor=#2164FF;" edge="1" parent="1" source="5aGmnt3CXDq8jBRWBJYF-17" target="5aGmnt3CXDq8jBRWBJYF-3">
          <mxGeometry relative="1" as="geometry">
            <Array as="points">
              <mxPoint x="240" y="660" />
            </Array>
          </mxGeometry>
        </mxCell>
        <mxCell id="5aGmnt3CXDq8jBRWBJYF-23" value="Листовка" style="text;html=1;strokeColor=none;fillColor=none;align=center;verticalAlign=middle;whiteSpace=wrap;rounded=0;fontSize=6;fontColor=#FF7424;" vertex="1" parent="1">
          <mxGeometry x="256" y="650" width="30" height="10" as="geometry" />
        </mxCell>
        <mxCell id="5aGmnt3CXDq8jBRWBJYF-31" value="Листовка" style="text;html=1;strokeColor=none;fillColor=none;align=center;verticalAlign=middle;whiteSpace=wrap;rounded=0;fontSize=6;fontColor=#FF7424;" vertex="1" parent="1">
          <mxGeometry x="273" y="466" width="30" height="10" as="geometry" />
        </mxCell>
        <mxCell id="5aGmnt3CXDq8jBRWBJYF-38" style="edgeStyle=orthogonalEdgeStyle;rounded=0;orthogonalLoop=1;jettySize=auto;html=1;entryX=0;entryY=0.3333333333333333;entryDx=0;entryDy=0;entryPerimeter=0;fontSize=8;fontColor=#FF7424;strokeColor=#2164FF;exitX=0.5;exitY=0;exitDx=0;exitDy=0;exitPerimeter=0;" edge="1" parent="1" source="5aGmnt3CXDq8jBRWBJYF-26" target="5aGmnt3CXDq8jBRWBJYF-35">
          <mxGeometry relative="1" as="geometry" />
        </mxCell>
        <mxCell id="5aGmnt3CXDq8jBRWBJYF-40" value="" style="group" vertex="1" connectable="0" parent="1">
          <mxGeometry x="278" y="398" width="50" height="30" as="geometry" />
        </mxCell>
        <mxCell id="5aGmnt3CXDq8jBRWBJYF-35" value="" style="shape=umlActor;verticalLabelPosition=bottom;verticalAlign=top;html=1;outlineConnect=0;fontSize=6;" vertex="1" parent="5aGmnt3CXDq8jBRWBJYF-40">
          <mxGeometry width="13.888888888888888" height="30" as="geometry" />
        </mxCell>
        <mxCell id="5aGmnt3CXDq8jBRWBJYF-36" value="Поток&amp;nbsp;" style="shape=umlActor;verticalLabelPosition=top;verticalAlign=bottom;html=1;outlineConnect=0;fontSize=6;labelPosition=center;align=center;" vertex="1" parent="5aGmnt3CXDq8jBRWBJYF-40">
          <mxGeometry x="18.518518518518533" width="13.888888888888888" height="30" as="geometry" />
        </mxCell>
        <mxCell id="5aGmnt3CXDq8jBRWBJYF-37" value="" style="shape=umlActor;verticalLabelPosition=bottom;verticalAlign=top;html=1;outlineConnect=0;fontSize=6;" vertex="1" parent="5aGmnt3CXDq8jBRWBJYF-40">
          <mxGeometry x="36.111111111111086" width="13.888888888888888" height="30" as="geometry" />
        </mxCell>
        <mxCell id="5aGmnt3CXDq8jBRWBJYF-41" value="&lt;font style=&quot;font-size: 21px;&quot; color=&quot;#000000&quot;&gt;Восход-Мари&lt;/font&gt;" style="text;html=1;strokeColor=none;fillColor=none;align=center;verticalAlign=middle;whiteSpace=wrap;rounded=0;fontSize=8;fontColor=#FF7424;" vertex="1" parent="1">
          <mxGeometry x="120" y="310" width="440" height="40" as="geometry" />
        </mxCell>
        <mxCell id="5aGmnt3CXDq8jBRWBJYF-42" value="" style="group" vertex="1" connectable="0" parent="1">
          <mxGeometry x="213" y="468" width="50" height="30" as="geometry" />
        </mxCell>
        <mxCell id="5aGmnt3CXDq8jBRWBJYF-25" value="" style="shape=umlActor;verticalLabelPosition=bottom;verticalAlign=top;html=1;outlineConnect=0;fontSize=6;" vertex="1" parent="5aGmnt3CXDq8jBRWBJYF-42">
          <mxGeometry width="13.888888888888888" height="30" as="geometry" />
        </mxCell>
        <mxCell id="5aGmnt3CXDq8jBRWBJYF-26" value="Поток&amp;nbsp;" style="shape=umlActor;verticalLabelPosition=top;verticalAlign=bottom;html=1;outlineConnect=0;fontSize=6;labelPosition=left;align=right;" vertex="1" parent="5aGmnt3CXDq8jBRWBJYF-42">
          <mxGeometry x="19.518518518518533" width="13.888888888888888" height="30" as="geometry" />
        </mxCell>
        <mxCell id="5aGmnt3CXDq8jBRWBJYF-27" value="" style="shape=umlActor;verticalLabelPosition=bottom;verticalAlign=top;html=1;outlineConnect=0;fontSize=6;" vertex="1" parent="5aGmnt3CXDq8jBRWBJYF-42">
          <mxGeometry x="36.111111111111114" width="13.888888888888888" height="30" as="geometry" />
        </mxCell>
        <object label="&lt;table border=&quot;1&quot; width=&quot;100%&quot; height=&quot;100%&quot; cellpadding=&quot;4&quot; style=&quot;width:100%;height:100%;border-collapse:collapse;&quot;&gt;&lt;tbody&gt;&lt;tr&gt;&lt;th align=&quot;center&quot;&gt;Время работы&lt;/th&gt;&lt;/tr&gt;&lt;tr&gt;&lt;td align=&quot;center&quot;&gt;&lt;b&gt;Пн.-Пт.&lt;/b&gt; с 9:00 до 17:00&lt;br&gt;&lt;b&gt;Сб&lt;/b&gt;. с 9:00 до 16:00&lt;br&gt;&lt;b&gt;Вс&lt;/b&gt;. Выходной&lt;/td&gt;&lt;/tr&gt;&lt;/tbody&gt;&lt;/table&gt;" id="5aGmnt3CXDq8jBRWBJYF-70">
          <mxCell style="text;html=1;strokeColor=none;fillColor=none;overflow=fill;rounded=0;fontSize=13;fontColor=#000000;strokeWidth=0;movable=1;sketch=0;shadow=0;imageAspect=0;dashed=1;" vertex="1" parent="1">
            <mxGeometry x="440" y="310" width="160" height="140" as="geometry" />
          </mxCell>
        </object>
      </root>
    </mxGraphModel>
  </diagram>
</mxfile>
